<mxfile host="app.diagrams.net" modified="2023-09-19T00:31:17.630Z" agent="Mozilla/5.0 (Windows NT 10.0; Win64; x64; rv:109.0) Gecko/20100101 Firefox/117.0" etag="4j8EiUUF42_SGRxttVXS" version="21.7.5" type="github">
  <diagram name="Page-1" id="ppbSIDj33z7nKV8B7q6m">
    <mxGraphModel dx="934" dy="548" grid="0" gridSize="10" guides="1" tooltips="1" connect="1" arrows="1" fold="1" page="1" pageScale="1" pageWidth="850" pageHeight="1100" math="0" shadow="0">
      <root>
        <mxCell id="0" />
        <mxCell id="1" parent="0" />
        <mxCell id="6A2RnBA_D1O6UY67HC9l-1" style="edgeStyle=orthogonalEdgeStyle;rounded=0;orthogonalLoop=1;jettySize=auto;html=1;exitX=0.5;exitY=1;exitDx=0;exitDy=0;labelBackgroundColor=none;fontColor=default;strokeColor=#457B9D;" edge="1" parent="1" source="6A2RnBA_D1O6UY67HC9l-6">
          <mxGeometry relative="1" as="geometry">
            <mxPoint x="215.95302013422815" y="236.06040268456377" as="targetPoint" />
          </mxGeometry>
        </mxCell>
        <mxCell id="6A2RnBA_D1O6UY67HC9l-80" style="edgeStyle=orthogonalEdgeStyle;rounded=0;orthogonalLoop=1;jettySize=auto;html=1;exitX=0.5;exitY=1;exitDx=0;exitDy=0;entryX=0.5;entryY=0;entryDx=0;entryDy=0;" edge="1" parent="1" source="6A2RnBA_D1O6UY67HC9l-6" target="6A2RnBA_D1O6UY67HC9l-11">
          <mxGeometry relative="1" as="geometry" />
        </mxCell>
        <mxCell id="6A2RnBA_D1O6UY67HC9l-6" value="" style="ellipse;whiteSpace=wrap;html=1;aspect=fixed;labelBackgroundColor=none;fontSize=14;fontStyle=1;strokeWidth=3;rounded=0;fillColor=#A8DADC;strokeColor=#457B9D;fontColor=#1D3557;" vertex="1" parent="1">
          <mxGeometry x="196" y="196" width="40" height="40" as="geometry" />
        </mxCell>
        <mxCell id="6A2RnBA_D1O6UY67HC9l-82" style="edgeStyle=orthogonalEdgeStyle;rounded=0;orthogonalLoop=1;jettySize=auto;html=1;exitX=1;exitY=0.5;exitDx=0;exitDy=0;entryX=0;entryY=0.5;entryDx=0;entryDy=0;" edge="1" parent="1" source="6A2RnBA_D1O6UY67HC9l-11" target="6A2RnBA_D1O6UY67HC9l-16">
          <mxGeometry relative="1" as="geometry" />
        </mxCell>
        <mxCell id="6A2RnBA_D1O6UY67HC9l-11" value="" style="ellipse;whiteSpace=wrap;html=1;aspect=fixed;labelBackgroundColor=none;fontSize=14;fontStyle=1;strokeWidth=3;rounded=0;fillColor=#A8DADC;strokeColor=#457B9D;fontColor=#1D3557;" vertex="1" parent="1">
          <mxGeometry x="196" y="276" width="40" height="40" as="geometry" />
        </mxCell>
        <mxCell id="6A2RnBA_D1O6UY67HC9l-81" style="edgeStyle=orthogonalEdgeStyle;rounded=0;orthogonalLoop=1;jettySize=auto;html=1;exitX=0.5;exitY=1;exitDx=0;exitDy=0;entryX=0.5;entryY=0;entryDx=0;entryDy=0;" edge="1" parent="1" source="6A2RnBA_D1O6UY67HC9l-16" target="6A2RnBA_D1O6UY67HC9l-21">
          <mxGeometry relative="1" as="geometry" />
        </mxCell>
        <mxCell id="6A2RnBA_D1O6UY67HC9l-16" value="" style="ellipse;whiteSpace=wrap;html=1;aspect=fixed;labelBackgroundColor=none;fontSize=14;fontStyle=1;strokeWidth=3;rounded=0;fillColor=#A8DADC;strokeColor=#457B9D;fontColor=#1D3557;" vertex="1" parent="1">
          <mxGeometry x="276" y="276" width="40" height="40" as="geometry" />
        </mxCell>
        <mxCell id="6A2RnBA_D1O6UY67HC9l-83" style="edgeStyle=orthogonalEdgeStyle;rounded=0;orthogonalLoop=1;jettySize=auto;html=1;exitX=1;exitY=0.5;exitDx=0;exitDy=0;entryX=0;entryY=0.5;entryDx=0;entryDy=0;" edge="1" parent="1" source="6A2RnBA_D1O6UY67HC9l-21" target="6A2RnBA_D1O6UY67HC9l-26">
          <mxGeometry relative="1" as="geometry" />
        </mxCell>
        <mxCell id="6A2RnBA_D1O6UY67HC9l-21" value="" style="ellipse;whiteSpace=wrap;html=1;aspect=fixed;labelBackgroundColor=none;fontSize=14;fontStyle=1;strokeWidth=3;rounded=0;fillColor=#A8DADC;strokeColor=#457B9D;fontColor=#1D3557;" vertex="1" parent="1">
          <mxGeometry x="196" y="356" width="40" height="40" as="geometry" />
        </mxCell>
        <mxCell id="6A2RnBA_D1O6UY67HC9l-84" style="edgeStyle=orthogonalEdgeStyle;rounded=0;orthogonalLoop=1;jettySize=auto;html=1;exitX=1;exitY=0.5;exitDx=0;exitDy=0;entryX=0;entryY=0.5;entryDx=0;entryDy=0;" edge="1" parent="1" source="6A2RnBA_D1O6UY67HC9l-26" target="6A2RnBA_D1O6UY67HC9l-29">
          <mxGeometry relative="1" as="geometry" />
        </mxCell>
        <mxCell id="6A2RnBA_D1O6UY67HC9l-26" value="" style="ellipse;whiteSpace=wrap;html=1;aspect=fixed;labelBackgroundColor=none;fontSize=14;fontStyle=1;strokeWidth=3;rounded=0;fillColor=#A8DADC;strokeColor=#457B9D;fontColor=#1D3557;" vertex="1" parent="1">
          <mxGeometry x="276" y="356" width="40" height="40" as="geometry" />
        </mxCell>
        <mxCell id="6A2RnBA_D1O6UY67HC9l-85" style="edgeStyle=orthogonalEdgeStyle;rounded=0;orthogonalLoop=1;jettySize=auto;html=1;exitX=0.5;exitY=1;exitDx=0;exitDy=0;entryX=0.5;entryY=0;entryDx=0;entryDy=0;" edge="1" parent="1" source="6A2RnBA_D1O6UY67HC9l-29" target="6A2RnBA_D1O6UY67HC9l-32">
          <mxGeometry relative="1" as="geometry" />
        </mxCell>
        <mxCell id="6A2RnBA_D1O6UY67HC9l-29" value="" style="ellipse;whiteSpace=wrap;html=1;aspect=fixed;labelBackgroundColor=none;fontSize=14;fontStyle=1;strokeWidth=3;rounded=0;fillColor=#A8DADC;strokeColor=#457B9D;fontColor=#1D3557;" vertex="1" parent="1">
          <mxGeometry x="356" y="356" width="40" height="40" as="geometry" />
        </mxCell>
        <mxCell id="6A2RnBA_D1O6UY67HC9l-32" value="" style="ellipse;whiteSpace=wrap;html=1;aspect=fixed;labelBackgroundColor=none;fontSize=14;fontStyle=1;strokeWidth=3;rounded=0;fillColor=#A8DADC;strokeColor=#457B9D;fontColor=#1D3557;" vertex="1" parent="1">
          <mxGeometry x="196" y="436" width="40" height="40" as="geometry" />
        </mxCell>
        <mxCell id="6A2RnBA_D1O6UY67HC9l-35" value="" style="ellipse;whiteSpace=wrap;html=1;aspect=fixed;labelBackgroundColor=none;fontSize=14;fontStyle=1;strokeWidth=3;rounded=0;fillColor=#A8DADC;strokeColor=#457B9D;fontColor=#1D3557;" vertex="1" parent="1">
          <mxGeometry x="276" y="436" width="40" height="40" as="geometry" />
        </mxCell>
        <mxCell id="6A2RnBA_D1O6UY67HC9l-36" value="" style="ellipse;whiteSpace=wrap;html=1;aspect=fixed;labelBackgroundColor=none;fontSize=14;fontStyle=1;strokeWidth=3;rounded=0;fillColor=#A8DADC;strokeColor=#457B9D;fontColor=#1D3557;" vertex="1" parent="1">
          <mxGeometry x="356" y="436" width="40" height="40" as="geometry" />
        </mxCell>
        <mxCell id="6A2RnBA_D1O6UY67HC9l-41" value="" style="ellipse;whiteSpace=wrap;html=1;aspect=fixed;labelBackgroundColor=none;fontSize=14;fontStyle=1;strokeWidth=3;rounded=0;fillColor=#A8DADC;strokeColor=#457B9D;fontColor=#1D3557;" vertex="1" parent="1">
          <mxGeometry x="276" y="196" width="40" height="40" as="geometry" />
        </mxCell>
        <mxCell id="6A2RnBA_D1O6UY67HC9l-44" value="" style="ellipse;whiteSpace=wrap;html=1;aspect=fixed;labelBackgroundColor=none;fontSize=14;fontStyle=1;strokeWidth=3;rounded=0;fillColor=#A8DADC;strokeColor=#457B9D;fontColor=#1D3557;" vertex="1" parent="1">
          <mxGeometry x="356" y="276" width="40" height="40" as="geometry" />
        </mxCell>
        <mxCell id="6A2RnBA_D1O6UY67HC9l-47" value="" style="ellipse;whiteSpace=wrap;html=1;aspect=fixed;labelBackgroundColor=none;fontSize=14;fontStyle=1;strokeWidth=3;rounded=0;fillColor=#A8DADC;strokeColor=#457B9D;fontColor=#1D3557;" vertex="1" parent="1">
          <mxGeometry x="356" y="196" width="40" height="40" as="geometry" />
        </mxCell>
        <mxCell id="6A2RnBA_D1O6UY67HC9l-50" value="" style="ellipse;whiteSpace=wrap;html=1;aspect=fixed;labelBackgroundColor=none;fontSize=14;fontStyle=1;strokeWidth=3;rounded=0;fillColor=#A8DADC;strokeColor=#457B9D;fontColor=#1D3557;" vertex="1" parent="1">
          <mxGeometry x="515" y="356" width="40" height="40" as="geometry" />
        </mxCell>
        <mxCell id="6A2RnBA_D1O6UY67HC9l-51" value="" style="ellipse;whiteSpace=wrap;html=1;aspect=fixed;labelBackgroundColor=none;fontSize=14;fontStyle=1;strokeWidth=3;rounded=0;fillColor=#A8DADC;strokeColor=#457B9D;fontColor=#1D3557;" vertex="1" parent="1">
          <mxGeometry x="515" y="436" width="40" height="40" as="geometry" />
        </mxCell>
        <mxCell id="6A2RnBA_D1O6UY67HC9l-54" value="" style="ellipse;whiteSpace=wrap;html=1;aspect=fixed;labelBackgroundColor=none;fontSize=14;fontStyle=1;strokeWidth=3;rounded=0;fillColor=#A8DADC;strokeColor=#457B9D;fontColor=#1D3557;" vertex="1" parent="1">
          <mxGeometry x="515" y="276" width="40" height="40" as="geometry" />
        </mxCell>
        <mxCell id="6A2RnBA_D1O6UY67HC9l-57" value="" style="ellipse;whiteSpace=wrap;html=1;aspect=fixed;labelBackgroundColor=none;fontSize=14;fontStyle=1;strokeWidth=3;rounded=0;fillColor=#A8DADC;strokeColor=#457B9D;fontColor=#1D3557;" vertex="1" parent="1">
          <mxGeometry x="515" y="196" width="40" height="40" as="geometry" />
        </mxCell>
        <mxCell id="6A2RnBA_D1O6UY67HC9l-60" value="..." style="text;html=1;strokeColor=none;fillColor=none;align=center;verticalAlign=middle;whiteSpace=wrap;rounded=0;labelBackgroundColor=none;fontSize=14;fontStyle=1;strokeWidth=3;fontColor=#1D3557;" vertex="1" parent="1">
          <mxGeometry x="426" y="201" width="60" height="30" as="geometry" />
        </mxCell>
        <mxCell id="6A2RnBA_D1O6UY67HC9l-63" value="..." style="text;html=1;strokeColor=none;fillColor=none;align=center;verticalAlign=middle;whiteSpace=wrap;rounded=0;labelBackgroundColor=none;fontSize=14;fontStyle=1;strokeWidth=3;fontColor=#1D3557;" vertex="1" parent="1">
          <mxGeometry x="426" y="281" width="60" height="30" as="geometry" />
        </mxCell>
        <mxCell id="6A2RnBA_D1O6UY67HC9l-66" value="..." style="text;html=1;strokeColor=none;fillColor=none;align=center;verticalAlign=middle;whiteSpace=wrap;rounded=0;labelBackgroundColor=none;fontSize=14;fontStyle=1;strokeWidth=3;fontColor=#1D3557;" vertex="1" parent="1">
          <mxGeometry x="426" y="361" width="60" height="30" as="geometry" />
        </mxCell>
        <mxCell id="6A2RnBA_D1O6UY67HC9l-69" value="..." style="text;html=1;strokeColor=none;fillColor=none;align=center;verticalAlign=middle;whiteSpace=wrap;rounded=0;labelBackgroundColor=none;fontSize=14;fontStyle=1;strokeWidth=3;fontColor=#1D3557;" vertex="1" parent="1">
          <mxGeometry x="390" y="441" width="60" height="30" as="geometry" />
        </mxCell>
        <mxCell id="6A2RnBA_D1O6UY67HC9l-70" value="" style="endArrow=classic;html=1;rounded=0;labelBackgroundColor=none;fontColor=default;fontSize=14;fontStyle=1;strokeWidth=3;strokeColor=#457B9D;" edge="1" parent="1">
          <mxGeometry width="50" height="50" relative="1" as="geometry">
            <mxPoint x="116" y="196" as="sourcePoint" />
            <mxPoint x="116" y="550" as="targetPoint" />
          </mxGeometry>
        </mxCell>
        <mxCell id="6A2RnBA_D1O6UY67HC9l-71" value="i&amp;nbsp; increasing" style="text;html=1;strokeColor=none;fillColor=none;align=center;verticalAlign=middle;whiteSpace=wrap;rounded=0;labelBackgroundColor=none;fontSize=14;fontStyle=1;strokeWidth=3;fontColor=#1D3557;" vertex="1" parent="1">
          <mxGeometry x="125" y="326" width="60" height="30" as="geometry" />
        </mxCell>
        <mxCell id="6A2RnBA_D1O6UY67HC9l-72" value="&lt;div style=&quot;font-size: 14px;&quot;&gt;j&lt;/div&gt;&lt;div style=&quot;font-size: 14px;&quot;&gt;increasing&lt;br style=&quot;font-size: 14px;&quot;&gt;&lt;/div&gt;" style="text;html=1;strokeColor=none;fillColor=none;align=center;verticalAlign=middle;whiteSpace=wrap;rounded=0;labelBackgroundColor=none;fontSize=14;fontStyle=1;strokeWidth=3;fontColor=#1D3557;" vertex="1" parent="1">
          <mxGeometry x="406" y="146" width="60" height="30" as="geometry" />
        </mxCell>
        <mxCell id="6A2RnBA_D1O6UY67HC9l-73" value="" style="endArrow=classic;html=1;rounded=0;labelBackgroundColor=none;fontColor=default;fontSize=14;fontStyle=1;strokeWidth=3;strokeColor=#457B9D;" edge="1" parent="1">
          <mxGeometry width="50" height="50" relative="1" as="geometry">
            <mxPoint x="196" y="116" as="sourcePoint" />
            <mxPoint x="566" y="116" as="targetPoint" />
          </mxGeometry>
        </mxCell>
        <mxCell id="6A2RnBA_D1O6UY67HC9l-103" style="edgeStyle=orthogonalEdgeStyle;rounded=0;orthogonalLoop=1;jettySize=auto;html=1;exitX=1;exitY=0.5;exitDx=0;exitDy=0;entryX=0;entryY=0.5;entryDx=0;entryDy=0;" edge="1" parent="1" source="6A2RnBA_D1O6UY67HC9l-92" target="6A2RnBA_D1O6UY67HC9l-93">
          <mxGeometry relative="1" as="geometry" />
        </mxCell>
        <mxCell id="6A2RnBA_D1O6UY67HC9l-92" value="" style="ellipse;whiteSpace=wrap;html=1;aspect=fixed;labelBackgroundColor=none;fontSize=14;fontStyle=1;strokeWidth=3;rounded=0;fillColor=#A8DADC;strokeColor=#457B9D;fontColor=#1D3557;" vertex="1" parent="1">
          <mxGeometry x="196.5" y="519" width="40" height="40" as="geometry" />
        </mxCell>
        <mxCell id="6A2RnBA_D1O6UY67HC9l-104" style="edgeStyle=orthogonalEdgeStyle;rounded=0;orthogonalLoop=1;jettySize=auto;html=1;exitX=1;exitY=0.5;exitDx=0;exitDy=0;entryX=0;entryY=0.5;entryDx=0;entryDy=0;" edge="1" parent="1" source="6A2RnBA_D1O6UY67HC9l-93" target="6A2RnBA_D1O6UY67HC9l-94">
          <mxGeometry relative="1" as="geometry" />
        </mxCell>
        <mxCell id="6A2RnBA_D1O6UY67HC9l-93" value="" style="ellipse;whiteSpace=wrap;html=1;aspect=fixed;labelBackgroundColor=none;fontSize=14;fontStyle=1;strokeWidth=3;rounded=0;fillColor=#A8DADC;strokeColor=#457B9D;fontColor=#1D3557;" vertex="1" parent="1">
          <mxGeometry x="276.5" y="519" width="40" height="40" as="geometry" />
        </mxCell>
        <mxCell id="6A2RnBA_D1O6UY67HC9l-94" value="" style="ellipse;whiteSpace=wrap;html=1;aspect=fixed;labelBackgroundColor=none;fontSize=14;fontStyle=1;strokeWidth=3;rounded=0;fillColor=#A8DADC;strokeColor=#457B9D;fontColor=#1D3557;" vertex="1" parent="1">
          <mxGeometry x="356.5" y="519" width="40" height="40" as="geometry" />
        </mxCell>
        <mxCell id="6A2RnBA_D1O6UY67HC9l-95" value="" style="ellipse;whiteSpace=wrap;html=1;aspect=fixed;labelBackgroundColor=none;fontSize=14;fontStyle=1;strokeWidth=3;rounded=0;fillColor=#A8DADC;strokeColor=#457B9D;fontColor=#1D3557;" vertex="1" parent="1">
          <mxGeometry x="515.5" y="519" width="40" height="40" as="geometry" />
        </mxCell>
        <mxCell id="6A2RnBA_D1O6UY67HC9l-101" style="edgeStyle=orthogonalEdgeStyle;rounded=0;orthogonalLoop=1;jettySize=auto;html=1;exitX=0.5;exitY=1;exitDx=0;exitDy=0;entryX=0.5;entryY=0;entryDx=0;entryDy=0;" edge="1" parent="1" source="6A2RnBA_D1O6UY67HC9l-97" target="6A2RnBA_D1O6UY67HC9l-92">
          <mxGeometry relative="1" as="geometry">
            <Array as="points">
              <mxPoint x="456" y="501" />
              <mxPoint x="336" y="501" />
              <mxPoint x="336" y="499" />
              <mxPoint x="216" y="499" />
            </Array>
          </mxGeometry>
        </mxCell>
        <mxCell id="6A2RnBA_D1O6UY67HC9l-97" value="" style="ellipse;whiteSpace=wrap;html=1;aspect=fixed;labelBackgroundColor=none;fontSize=14;fontStyle=1;strokeWidth=3;rounded=0;fillColor=#A8DADC;strokeColor=#457B9D;fontColor=#1D3557;" vertex="1" parent="1">
          <mxGeometry x="436" y="436" width="40" height="40" as="geometry" />
        </mxCell>
        <mxCell id="6A2RnBA_D1O6UY67HC9l-102" style="edgeStyle=orthogonalEdgeStyle;rounded=0;orthogonalLoop=1;jettySize=auto;html=1;exitX=1;exitY=0.5;exitDx=0;exitDy=0;entryX=0;entryY=0.5;entryDx=0;entryDy=0;" edge="1" parent="1" source="6A2RnBA_D1O6UY67HC9l-98" target="6A2RnBA_D1O6UY67HC9l-95">
          <mxGeometry relative="1" as="geometry" />
        </mxCell>
        <mxCell id="6A2RnBA_D1O6UY67HC9l-98" value="" style="ellipse;whiteSpace=wrap;html=1;aspect=fixed;labelBackgroundColor=none;fontSize=14;fontStyle=1;strokeWidth=3;rounded=0;fillColor=#A8DADC;strokeColor=#457B9D;fontColor=#1D3557;" vertex="1" parent="1">
          <mxGeometry x="436" y="519" width="40" height="40" as="geometry" />
        </mxCell>
        <mxCell id="6A2RnBA_D1O6UY67HC9l-99" value="..." style="text;html=1;strokeColor=none;fillColor=none;align=center;verticalAlign=middle;whiteSpace=wrap;rounded=0;labelBackgroundColor=none;fontSize=14;fontStyle=1;strokeWidth=3;fontColor=#1D3557;" vertex="1" parent="1">
          <mxGeometry x="390" y="524" width="60" height="30" as="geometry" />
        </mxCell>
      </root>
    </mxGraphModel>
  </diagram>
</mxfile>
